<svg width="30" height="30" viewBox="0 0 30 30" fill="none" xmlns="http://www.w3.org/2000/svg">
<g clip-path="url(#clip0_219_2808)">
<path d="M26.6249 11.875C25.4667 6.1694 20.4224 1.875 14.375 1.875C7.47144 1.875 1.875 7.47144 1.875 14.375C1.875 16.7476 2.536 18.9657 3.68389 20.8554C3.12669 22.1912 2.56005 23.7701 2.19773 25.2211C1.99441 26.0354 2.70878 26.7219 3.51749 26.4974C4.91954 26.1081 6.46219 25.5417 7.79106 25.0026C9.0255 25.7689 10.4033 26.3262 11.875 26.6249" stroke="black" stroke-width="2" stroke-linecap="round" stroke-linejoin="round"/>
<path d="M13.125 20.625C13.125 16.4829 16.4829 13.125 20.625 13.125C24.7671 13.125 28.125 16.4829 28.125 20.625C28.125 22.0641 27.7197 23.4086 27.017 24.5504C27.2866 25.1199 27.5547 25.7757 27.7666 26.4787C28.0087 27.2823 27.2888 27.9733 26.4911 27.7124C25.8192 27.4927 25.1834 27.2295 24.62 26.9736C23.4634 27.703 22.0934 28.125 20.625 28.125C16.4829 28.125 13.125 24.7671 13.125 20.625Z" fill="#FA1E54" stroke="black" stroke-width="2" stroke-linejoin="round"/>
</g>
<defs>
<clipPath id="clip0_219_2808">
<rect width="30" height="30" fill="white"/>
</clipPath>
</defs>
</svg>
