<svg width="34" height="34" viewBox="0 0 34 34" fill="none" xmlns="http://www.w3.org/2000/svg">
<path d="M26.562 23.5597C26.7089 23.5671 26.8456 23.5745 26.9725 23.5816C27.8331 23.63 28.6027 24.101 28.9903 24.8709C29.4963 25.8757 30.1934 27.4574 30.7064 29.3908C31.0176 30.5636 30.1574 31.6503 28.9451 31.6998C26.9148 31.7826 23.2498 31.875 16.9995 31.875C10.7493 31.875 7.08419 31.7826 5.0539 31.6998C3.84162 31.6503 2.98141 30.5636 3.29258 29.3908C3.8056 27.4574 4.50271 25.8757 5.00863 24.8709C5.3963 24.101 6.16584 23.63 7.02647 23.5816C7.15347 23.5745 7.29018 23.5671 7.43694 23.5597" stroke="black" stroke-width="2.3" stroke-linecap="round" stroke-linejoin="round"/>
<path d="M27.625 12.7994C27.625 20.3292 20.0118 25.7343 17.6743 27.2164C17.2593 27.4796 16.7407 27.4796 16.3257 27.2164C13.9882 25.7343 6.375 20.3292 6.375 12.7994C6.375 6.9041 11.132 2.125 17 2.125C22.868 2.125 27.625 6.9041 27.625 12.7994Z" fill="#FA1E54" stroke="black" stroke-width="2.3" stroke-linecap="round" stroke-linejoin="round"/>
<path d="M21.25 12.75C21.25 15.0972 19.3472 17 17 17C14.6528 17 12.75 15.0972 12.75 12.75C12.75 10.4028 14.6528 8.5 17 8.5C19.3472 8.5 21.25 10.4028 21.25 12.75Z" fill="white" stroke="black" stroke-width="2.3" stroke-linecap="round" stroke-linejoin="round"/>
</svg>
