<svg width="40" height="40" viewBox="0 0 40 40" fill="none" xmlns="http://www.w3.org/2000/svg">
<path d="M23.3456 18.0373L32.5301 21.7575C32.809 21.8705 33.0111 22.118 33.0659 22.4139L33.1495 22.865C33.268 23.5039 32.678 24.047 32.051 23.8762L22.3654 21.2372C21.8956 21.1092 21.6186 20.6247 21.7466 20.1549L22.1641 18.6226C22.303 18.1129 22.8559 17.8389 23.3456 18.0373Z" fill="#FA1E54" stroke="#252139" stroke-width="0.97949"/>
<path d="M17.8673 18.0187L8.6828 21.739C8.40386 21.8519 8.20184 22.0994 8.14698 22.3953L8.06336 22.8464C7.94492 23.4854 8.53493 24.0285 9.16188 23.8576L18.8475 21.2186C19.3173 21.0907 19.5943 20.6061 19.4663 20.1364L19.0488 18.604C18.9099 18.0943 18.357 17.8204 17.8673 18.0187Z" fill="#FA1E54" stroke="#252139" stroke-width="0.97949"/>
<path d="M26.3668 30.6893L26.8483 32.0357C26.9765 32.3941 26.6645 32.7554 26.2912 32.6808L20.5989 31.5439C20.4069 31.5056 20.2092 31.506 20.0174 31.5451L14.4436 32.6821C14.0748 32.7574 13.7626 32.4058 13.8808 32.0485L14.3285 30.6951C14.3807 30.5372 14.5095 30.4166 14.6704 30.3748L20.1873 28.9433C20.2676 28.9225 20.3518 28.9224 20.4321 28.943L26.0275 30.3798C26.1849 30.4202 26.3121 30.5362 26.3668 30.6893Z" fill="#FA1E54" stroke="#252139" stroke-width="0.97949"/>
<path d="M22.3066 7.47826V29.2929H18.3296V7.47826C18.3296 6.38003 19.2199 5.48974 20.3181 5.48974C21.4163 5.48974 22.3066 6.38003 22.3066 7.47826Z" fill="#FA1E54" stroke="#252139" stroke-width="0.97949"/>
</svg>
