<svg width="35" height="35" viewBox="0 0 35 35" fill="none" xmlns="http://www.w3.org/2000/svg">
<path d="M3.82812 3.82812H17.5V25.7031H3.82812V3.82812Z" stroke="black" stroke-width="2"/>
<path d="M17.5 9.29688H31.1719V31.1719H17.5V9.29688Z" stroke="black" stroke-width="2"/>
<path d="M7.24609 19.5508L9.98047 9.98047H11.3477L14.082 19.5508M8.02735 16.8164H13.3008" stroke="black" stroke-width="2"/>
<path d="M21.9434 20.2344V16.1328H25.3613C26.1164 16.1328 26.7285 16.7449 26.7285 17.5V18.8672C26.7285 19.6223 26.1164 20.2344 25.3613 20.2344H21.9434ZM21.9434 20.2344V24.3359H26.0449C26.8 24.3359 27.4121 23.7238 27.4121 22.9688V21.6016C27.4121 20.8465 26.8 20.2344 26.0449 20.2344H21.9434Z" fill="#FA1E54"/>
<path d="M21.9434 20.2344V16.1328H25.3613C26.1164 16.1328 26.7285 16.7449 26.7285 17.5V18.8672C26.7285 19.6223 26.1164 20.2344 25.3613 20.2344H21.9434ZM21.9434 20.2344V24.3359H26.0449C26.8 24.3359 27.4121 23.7238 27.4121 22.9688V21.6016C27.4121 20.8465 26.8 20.2344 26.0449 20.2344H21.9434Z" stroke="black" stroke-width="2"/>
</svg>
