<svg width="31" height="31" viewBox="0 0 31 31" fill="none" xmlns="http://www.w3.org/2000/svg">
<path d="M14.467 20.6211L20.685 14.4031C22.3104 12.7795 24.9442 12.78 26.5689 14.4048C28.1936 16.0295 28.1942 18.6633 26.5706 20.2887L20.3582 26.5011C20.3563 26.5029 20.3545 26.5048 20.3525 26.5068C18.7273 28.132 16.0922 28.132 14.467 26.5068C12.8417 24.8814 12.8417 22.2463 14.467 20.6211Z" stroke="black" stroke-width="2"/>
<path d="M17.5742 17.5128L23.4599 23.3985" stroke="black" stroke-width="2"/>
<path d="M3.39062 9.44531C3.39063 11.0511 4.02853 12.5911 5.164 13.7266C6.29948 14.8621 7.83951 15.5 9.44531 15.5C11.0511 15.5 12.5911 14.8621 13.7266 13.7266C14.8621 12.5911 15.5 11.0511 15.5 9.44531C15.5 7.83951 14.8621 6.29948 13.7266 5.164C12.5911 4.02853 11.0511 3.39063 9.44531 3.39062C7.83951 3.39063 6.29948 4.02853 5.164 5.164C4.02853 6.29948 3.39063 7.83951 3.39062 9.44531Z" fill="#FA1E54" stroke="black" stroke-width="2"/>
<path d="M3.39062 9.44531H15.5" stroke="black" stroke-width="2"/>
</svg>
