<svg class="home-banner-text-block-svg" xmlns="http://www.w3.org/2000/svg" width="34" height="56" viewBox="0 0 34 56" fill="none"><g clip-path="url(#clip0_1_537)"><path d="M30.4766 4.1611C30.4879 3.95205 30.3259 3.75874 30.1175 3.73858C29.3221 3.66164 28.5453 3.5113 27.7735 3.56629C26.48 3.6717 25.1677 3.88455 23.9253 4.33115C16.2462 7.02671 10.0848 11.8157 6.5865 19.1205C3.05991 26.5864 3.48082 34.3016 7.99054 41.4603C10.2407 45.0665 13.2143 48.0243 16.6586 50.511C17.5936 51.1584 17.2968 52.5924 16.1937 52.869C15.7672 52.9759 15.3531 53.0786 14.9373 53.1797C14.7607 53.2227 14.6383 53.3732 14.6345 53.5549C14.6315 53.6974 14.7274 53.8397 14.8591 53.8943C15.1477 54.014 15.4317 54.1607 15.7397 54.1705C17.6502 54.3394 19.5702 54.4546 21.4902 54.5698C22.7554 54.6256 24.0649 54.7445 24.8382 53.4958C25.6747 52.2028 25.0753 50.8795 24.3212 49.8059C23.2471 48.344 21.9929 46.9612 20.7293 45.6322C20.1533 45.0835 18.8192 46.0652 19.1399 46.7932C19.6258 47.793 20.2714 48.6809 20.9156 49.6427C20.9969 49.7641 20.9018 50.0302 20.768 49.9715C20.7408 49.9595 20.7337 49.9467 20.7078 49.932C9.63749 43.666 4.11686 33.8444 7.49764 21.8274C7.65505 21.2459 7.86623 20.6738 8.18498 20.1206C12.2615 12.3635 18.4351 7.18907 26.937 4.85928C27.962 4.57741 29.0851 4.55029 30.1877 4.44904C30.3432 4.43476 30.4682 4.31708 30.4766 4.1611Z" fill="#F7B149"></path></g><defs><clipPath id="clip0_1_537"><rect width="52.2059" height="25.0302" fill="white" transform="matrix(-0.172727 0.98497 0.98497 0.172727 9.01562 0)"></rect></clipPath></defs></svg>