<svg width="29" height="29" viewBox="0 0 29 29" fill="none" xmlns="http://www.w3.org/2000/svg">
<g id="Google__G__Logo 2">
<path id="Vector" d="M27.26 14.8027C27.26 13.8602 27.1754 12.954 27.0183 12.084H14.5V17.2315H21.6533C21.3392 18.8869 20.3967 20.2886 18.9829 21.2311V24.5782H23.2967C25.81 22.2582 27.26 18.8507 27.26 14.8027Z" fill="#4285F4"/>
<path id="Vector_2" d="M14.4986 27.7913C18.0874 27.7913 21.0961 26.6071 23.2953 24.5771L18.9816 21.23C17.7974 22.0275 16.287 22.5109 14.4986 22.5109C11.0428 22.5109 8.10656 20.1788 7.05531 17.0371H2.63281V20.4688C4.8199 24.8067 9.30281 27.7913 14.4986 27.7913Z" fill="#34A853"/>
<path id="Vector_3" d="M7.05927 17.0255C6.79344 16.228 6.63635 15.3821 6.63635 14.5001C6.63635 13.618 6.79344 12.7721 7.05927 11.9746V8.54297H2.63677C1.73052 10.3313 1.21094 12.3492 1.21094 14.5001C1.21094 16.6509 1.73052 18.6688 2.63677 20.4571L6.08052 17.7746L7.05927 17.0255Z" fill="#FBBC05"/>
<path id="Vector_4" d="M14.4986 6.50148C16.4561 6.50148 18.1961 7.17815 19.5857 8.48315L23.392 4.6769C21.0841 2.52607 18.0874 1.20898 14.4986 1.20898C9.30281 1.20898 4.8199 4.19357 2.63281 8.54357L7.05531 11.9752C8.10656 8.83357 11.0428 6.50148 14.4986 6.50148Z" fill="#EA4335"/>
</g>
</svg>
