<svg xmlns="http://www.w3.org/2000/svg" width="55" height="55" viewBox="0 0 55 55" fill="none"><path d="M53.7232 24.4917L30.4982 1.27624C28.8566 -0.425414 26.1207 -0.425414 24.4791 1.27624L1.25407 24.4917C-0.387487 26.1934 -0.448286 28.8674 1.25407 30.5083L24.4791 53.7238C26.1815 55.4254 28.8566 55.4254 30.4982 53.7238L53.7232 30.5083C55.4256 28.8674 55.4256 26.1326 53.7232 24.4917Z" fill="url(#paint0_linear_1_1426)"></path><path fill-rule="evenodd" clip-rule="evenodd" d="M20.483 34.518C20.0028 34.0378 20.0028 33.2592 20.483 32.779L32.7797 20.4822C33.2599 20.002 34.0385 20.002 34.5187 20.4822C34.999 20.9625 34.999 21.741 34.5187 22.2213L22.222 34.518C21.7418 34.9982 20.9632 34.9982 20.483 34.518Z" fill="white"></path><path fill-rule="evenodd" clip-rule="evenodd" d="M33.6492 34.8782C32.9701 34.8782 32.4196 34.3276 32.4196 33.6485L32.4196 22.5814L21.3525 22.5814C20.6734 22.5814 20.1228 22.0309 20.1228 21.3518C20.1228 20.6726 20.6734 20.1221 21.3525 20.1221L33.6492 20.1221C34.3284 20.1221 34.8789 20.6726 34.8789 21.3517L34.8789 33.6485C34.8789 34.3276 34.3284 34.8782 33.6492 34.8782Z" fill="white"></path><defs><linearGradient id="paint0_linear_1_1426" x1="7.23684" y1="-2.89471" x2="59.2663" y2="-6.89091" gradientUnits="userSpaceOnUse"><stop offset="0.00520833" stop-color="#FF8000"></stop><stop offset="0.447917" stop-color="#FA1E54"></stop><stop offset="1" stop-color="#8AC5FF"></stop></linearGradient></defs></svg>