<svg xmlns="http://www.w3.org/2000/svg" width="62" height="41" viewBox="0 0 62 41" fill="none"><rect x="0.5" y="0.5" width="61" height="40" rx="20" fill="#393452"></rect><rect x="0.5" y="0.5" width="61" height="40" rx="20" stroke="#968EBE"></rect><path fill-rule="evenodd" clip-rule="evenodd" d="M25.8889 25.6733C25.5392 25.3194 25.5392 24.7454 25.8889 24.3914L34.8445 15.3268C35.1942 14.9728 35.7613 14.9728 36.111 15.3268C36.4607 15.6808 36.4607 16.2547 36.111 16.6087L27.1554 25.6733C26.8057 26.0273 26.2387 26.0273 25.8889 25.6733Z" fill="white"></path><path fill-rule="evenodd" clip-rule="evenodd" d="M35.4777 25.9388C34.9831 25.9388 34.5822 25.533 34.5822 25.0324L34.5822 16.8742L26.5222 16.8742C26.0276 16.8742 25.6266 16.4684 25.6266 15.9678C25.6266 15.4671 26.0276 15.0613 26.5222 15.0613L35.4777 15.0613C35.9723 15.0613 36.3733 15.4671 36.3733 15.9678L36.3733 25.0324C36.3733 25.533 35.9723 25.9388 35.4777 25.9388Z" fill="white"></path></svg>