<svg xmlns="http://www.w3.org/2000/svg" width="16" height="16" viewBox="0 0 16 16" fill="none"><path d="M15.75 12.8599C15.75 13.1434 15.6869 13.4348 15.5528 13.7183C15.4188 14.0018 15.2452 14.2695 15.0165 14.5215C14.6301 14.9468 14.2042 15.2539 13.7231 15.4508C13.2499 15.6476 12.7372 15.75 12.1852 15.75C11.3807 15.75 10.521 15.561 9.61405 15.1751C8.70706 14.7893 7.80008 14.2695 6.90098 13.6159C5.99399 12.9544 5.13433 12.222 4.3141 11.4109C3.50175 10.5919 2.76828 9.7335 2.11367 8.83575C1.46695 7.938 0.94642 7.04025 0.567852 6.15038C0.189284 5.25263 0 4.39425 0 3.57525C0 3.03975 0.0946419 2.52788 0.283926 2.05538C0.47321 1.575 0.772909 1.134 1.19091 0.74025C1.69567 0.244125 2.24775 0 2.83137 0C3.0522 0 3.27303 0.0472501 3.47021 0.14175C3.67526 0.23625 3.85666 0.378 3.99862 0.58275L5.82837 3.15788C5.97033 3.35475 6.07286 3.53588 6.14384 3.70913C6.21482 3.8745 6.25426 4.03988 6.25426 4.1895C6.25426 4.3785 6.19905 4.5675 6.08863 4.74862C5.9861 4.92975 5.83625 5.11875 5.64697 5.30775L5.04757 5.92987C4.96082 6.0165 4.92138 6.11888 4.92138 6.24488C4.92138 6.30788 4.92927 6.363 4.94504 6.426C4.9687 6.489 4.99236 6.53625 5.00814 6.5835C5.1501 6.84337 5.39459 7.182 5.74161 7.5915C6.09652 8.001 6.47509 8.41838 6.8852 8.83575C7.31109 9.25313 7.72121 9.639 8.13921 9.99337C8.54932 10.3399 8.88846 10.5761 9.15661 10.7179C9.19604 10.7336 9.24337 10.7572 9.29857 10.7809C9.36167 10.8045 9.42476 10.8124 9.49574 10.8124C9.62982 10.8124 9.73235 10.7651 9.8191 10.6785L10.4185 10.0879C10.6157 9.891 10.805 9.74137 10.9864 9.64688C11.1678 9.53662 11.3491 9.4815 11.5463 9.4815C11.6962 9.4815 11.8539 9.513 12.0274 9.58388C12.2009 9.65475 12.3823 9.75713 12.5795 9.891L15.19 11.7416C15.3951 11.8834 15.5371 12.0487 15.6238 12.2456C15.7027 12.4425 15.75 12.6394 15.75 12.8599Z" fill="#2C5F70"></path></svg>