<svg xmlns="http://www.w3.org/2000/svg" width="48" height="32" viewBox="0 0 48 32" fill="none"><path d="M0 11C0 4.92487 4.92487 0 11 0H37C43.0751 0 48 4.92487 48 11V21C48 27.0751 43.0751 32 37 32H11C4.92487 32 0 27.0751 0 21V11Z" fill="url(#paint0_linear_2537_1552)"></path><path d="M0 11C0 4.92487 4.92487 0 11 0H37C43.0751 0 48 4.92487 48 11V21C48 27.0751 43.0751 32 37 32H11C4.92487 32 0 27.0751 0 21V11Z" fill="url(#paint1_linear_2537_1552)"></path><path d="M0 11C0 4.92487 4.92487 0 11 0H37C43.0751 0 48 4.92487 48 11V21C48 27.0751 43.0751 32 37 32H11C4.92487 32 0 27.0751 0 21V11Z" fill="url(#paint2_linear_2537_1552)"></path><path d="M0 11C0 4.92487 4.92487 0 11 0H37C43.0751 0 48 4.92487 48 11V21C48 27.0751 43.0751 32 37 32H11C4.92487 32 0 27.0751 0 21V11Z" fill="url(#paint3_linear_2537_1552)"></path><path fill-rule="evenodd" clip-rule="evenodd" d="M20.2356 21.4558C19.9202 21.1404 19.9202 20.629 20.2356 20.3136L28.3126 12.2366C28.628 11.9211 29.1394 11.9211 29.4548 12.2366C29.7703 12.552 29.7703 13.0634 29.4548 13.3788L21.3779 21.4558C21.0624 21.7712 20.551 21.7712 20.2356 21.4558Z" fill="white"></path><path fill-rule="evenodd" clip-rule="evenodd" d="M28.8837 21.6924C28.4376 21.6924 28.076 21.3308 28.076 20.8847L28.076 13.6154L20.8067 13.6154C20.3606 13.6154 19.999 13.2538 19.999 12.8077C19.999 12.3616 20.3606 12 20.8067 12L28.8837 12C29.3298 12 29.6914 12.3616 29.6914 12.8077L29.6914 20.8847C29.6914 21.3308 29.3298 21.6924 28.8837 21.6924Z" fill="white"></path><defs><linearGradient id="paint0_linear_2537_1552" x1="6.31579" y1="-1.6842" x2="51.3928" y2="-6.87751" gradientUnits="userSpaceOnUse"><stop offset="0.00520833" stop-color="#FF8000"></stop><stop offset="0.447917" stop-color="#FA1E54"></stop><stop offset="1" stop-color="#8AC5FF"></stop></linearGradient><linearGradient id="paint1_linear_2537_1552" x1="6.31579" y1="-1.6842" x2="51.3928" y2="-6.87751" gradientUnits="userSpaceOnUse"><stop offset="0.00520833" stop-color="#FF8000"></stop><stop offset="0.447917" stop-color="#FA1E54"></stop><stop offset="1" stop-color="#8AC5FF"></stop></linearGradient><linearGradient id="paint2_linear_2537_1552" x1="6.31579" y1="-1.6842" x2="51.3928" y2="-6.87751" gradientUnits="userSpaceOnUse"><stop offset="0.00520833" stop-color="#FF8000"></stop><stop offset="0.447917" stop-color="#FA1E54"></stop><stop offset="1" stop-color="#8AC5FF"></stop></linearGradient><linearGradient id="paint3_linear_2537_1552" x1="6.31579" y1="-1.6842" x2="51.3928" y2="-6.87751" gradientUnits="userSpaceOnUse"><stop offset="0.00520833" stop-color="#FF8000"></stop><stop offset="0.447917" stop-color="#FA1E54"></stop><stop offset="1" stop-color="#8AC5FF"></stop></linearGradient></defs></svg>