<svg xmlns="http://www.w3.org/2000/svg" width="9" height="9" viewBox="0 0 9 9" fill="none"><path fill-rule="evenodd" clip-rule="evenodd" d="M0.196502 7.85238C-0.0654354 7.59044 -0.0654355 7.16576 0.196502 6.90382L6.90382 0.1965C7.16575 -0.0654372 7.59044 -0.0654373 7.85237 0.1965C8.11431 0.458436 8.11431 0.883121 7.85237 1.14506L1.14506 7.85238C0.883122 8.11431 0.458438 8.11431 0.196502 7.85238Z" fill="url(#paint0_linear_2537_1559)"></path><path fill-rule="evenodd" clip-rule="evenodd" d="M7.3781 8.04883C7.00766 8.04883 6.70736 7.74853 6.70736 7.3781L6.70736 1.34151L0.67078 1.34151C0.300345 1.34151 4.80248e-05 1.04121 4.79924e-05 0.670779C4.796e-05 0.300344 0.300345 4.74074e-05 0.67078 4.73751e-05L7.3781 4.67887e-05C7.74853 4.67563e-05 8.04883 0.300344 8.04883 0.670778L8.04883 7.3781C8.04883 7.74853 7.74853 8.04883 7.3781 8.04883Z" fill="url(#paint1_linear_2537_1559)"></path><defs><linearGradient id="paint0_linear_2537_1559" x1="6.98978" y1="8.47244" x2="-0.624285" y2="9.05725" gradientUnits="userSpaceOnUse"><stop offset="0.00520833" stop-color="#FF8000"></stop><stop offset="0.447917" stop-color="#DE496E"></stop><stop offset="1" stop-color="#8AC5FF"></stop></linearGradient><linearGradient id="paint1_linear_2537_1559" x1="6.98978" y1="8.47244" x2="-0.624285" y2="9.05725" gradientUnits="userSpaceOnUse"><stop offset="0.00520833" stop-color="#FF8000"></stop><stop offset="0.447917" stop-color="#DE496E"></stop><stop offset="1" stop-color="#8AC5FF"></stop></linearGradient></defs></svg>