<svg width="90" height="73" viewBox="0 0 90 73" fill="none" xmlns="http://www.w3.org/2000/svg">
<g id="Group 1000001676">
<circle id="Ellipse 70" cx="86" cy="4" r="4" fill="#0ED984"/>
<rect id="Rectangle 1380" y="5" width="88" height="68" rx="34" fill="#252139"/>
<path id="Vector" fill-rule="evenodd" clip-rule="evenodd" d="M37.75 26C37.3024 26 36.8732 26.1778 36.5568 26.4943C36.2403 26.8107 36.0625 27.2399 36.0625 27.6875C36.0625 28.6195 35.307 29.375 34.375 29.375C33.4799 29.375 32.6214 29.7306 31.9885 30.3635C31.3556 30.9964 31 31.8549 31 32.75V49.625C31 50.5201 31.3556 51.3785 31.9885 52.0115C32.6214 52.6444 33.4799 53 34.375 53H54.625C55.5201 53 56.3785 52.6444 57.0115 52.0115C57.6444 51.3785 58 50.5201 58 49.625V32.75C58 31.8549 57.6444 30.9964 57.0115 30.3635C56.3785 29.7306 55.5201 29.375 54.625 29.375C53.693 29.375 52.9375 28.6195 52.9375 27.6875C52.9375 27.2399 52.7597 26.8107 52.4432 26.4943C52.1268 26.1778 51.6976 26 51.25 26C50.8024 26 50.3732 26.1778 50.0568 26.4943C49.7403 26.8107 49.5625 27.2399 49.5625 27.6875C49.5625 28.6195 48.807 29.375 47.875 29.375H41.125C40.193 29.375 39.4375 28.6195 39.4375 27.6875C39.4375 27.2399 39.2597 26.8107 38.9432 26.4943C38.6268 26.1778 38.1976 26 37.75 26ZM37.75 34.4375C37.3024 34.4375 36.8732 34.6153 36.5568 34.9318C36.2403 35.2482 36.0625 35.6774 36.0625 36.125C36.0625 36.5726 36.2403 37.0018 36.5568 37.3182C36.8732 37.6347 37.3024 37.8125 37.75 37.8125H51.25C51.6976 37.8125 52.1268 37.6347 52.4432 37.3182C52.7597 37.0018 52.9375 36.5726 52.9375 36.125C52.9375 35.6774 52.7597 35.2482 52.4432 34.9318C52.1268 34.6153 51.6976 34.4375 51.25 34.4375H37.75Z" fill="#F0F5F4"/>
</g>
</svg>
