<svg xmlns="http://www.w3.org/2000/svg" width="38" height="39" viewBox="0 0 38 39" fill="none"><path d="M37.1179 17.1745L21.0715 1.1347C19.9373 -0.040993 18.047 -0.040993 16.9129 1.1347L0.866451 17.1745C-0.267718 18.3502 -0.309725 20.1977 0.866451 21.3314L16.9129 37.3712C18.089 38.5469 19.9373 38.5469 21.0715 37.3712L37.1179 21.3314C38.294 20.1977 38.294 18.3082 37.1179 17.1745ZM31.6991 21.2474L21.0295 31.9126C20.4834 32.4585 19.7693 32.7524 19.0132 32.7524C18.2571 32.7524 17.543 32.4585 16.9969 31.9126L6.32727 21.2474C5.78119 20.7015 5.48714 19.9877 5.48714 19.2319C5.48714 18.4761 5.78119 17.7623 6.32727 17.2165L16.9969 6.55127C18.089 5.45956 19.9373 5.45956 21.0295 6.55127L31.6991 17.2165C32.7912 18.3502 32.7912 20.1557 31.6991 21.2474Z" fill="#005F7F" fill-opacity="0.52"></path></svg>