<svg xmlns="http://www.w3.org/2000/svg" width="23" height="23" viewBox="0 0 23 23" fill="none"><path d="M6.61258 19.7415C8.05008 20.604 9.77508 21.0832 11.5001 21.0832C16.7709 21.0832 21.0834 16.7707 21.0834 11.4998C21.0834 6.229 16.7709 1.9165 11.5001 1.9165C6.22925 1.9165 1.91675 6.229 1.91675 11.4998C1.91675 13.2248 2.39591 14.854 3.16258 16.2915L2.35719 19.3892C2.16247 20.1381 2.85567 20.8149 3.59973 20.6023L6.61258 19.7415Z" stroke="#25d366" stroke-width="1.5" stroke-miterlimit="10" stroke-linecap="round" stroke-linejoin="round"></path>  <path d="M15.8125 14.2298C15.8125 14.3851 15.7779 14.5446 15.7045 14.6999C15.6311 14.8551 15.5361 15.0018 15.4108 15.1398C15.1992 15.3726 14.966 15.5408 14.7025 15.6486C14.4434 15.7564 14.1627 15.8125 13.8603 15.8125C13.4198 15.8125 12.949 15.709 12.4523 15.4977C11.9557 15.2864 11.459 15.0018 10.9666 14.6438C10.4699 14.2816 9.99915 13.8805 9.54998 13.4363C9.10513 12.9878 8.70346 12.5178 8.34499 12.0261C7.99083 11.5345 7.70578 11.0429 7.49847 10.5556C7.29116 10.0639 7.1875 9.59388 7.1875 9.14538C7.1875 8.85213 7.23933 8.57181 7.34298 8.31306C7.44664 8.05 7.61076 7.8085 7.83967 7.59288C8.11608 7.32119 8.41841 7.1875 8.73801 7.1875C8.85894 7.1875 8.97988 7.21338 9.08785 7.26513C9.20014 7.31688 9.29948 7.3945 9.37722 7.50663L10.3792 8.91681C10.457 9.02463 10.5131 9.12381 10.552 9.21869C10.5909 9.30925 10.6125 9.39981 10.6125 9.48175C10.6125 9.58525 10.5822 9.68875 10.5218 9.78794C10.4656 9.88712 10.3835 9.99062 10.2799 10.0941L9.95165 10.4348C9.90414 10.4822 9.88254 10.5383 9.88254 10.6073C9.88254 10.6418 9.88686 10.672 9.8955 10.7065C9.90846 10.741 9.92141 10.7669 9.93005 10.7927C10.0078 10.9351 10.1417 11.1205 10.3317 11.3448C10.5261 11.569 10.7334 11.7976 10.958 12.0261C11.1912 12.2547 11.4158 12.466 11.6447 12.6601C11.8693 12.8498 12.055 12.9792 12.2018 13.0568C12.2234 13.0654 12.2493 13.0784 12.2796 13.0913C12.3141 13.1042 12.3487 13.1086 12.3876 13.1086C12.461 13.1086 12.5171 13.0827 12.5646 13.0353L12.8929 12.7118C13.0008 12.604 13.1045 12.5221 13.2038 12.4703C13.3032 12.4099 13.4025 12.3798 13.5105 12.3798C13.5925 12.3798 13.6789 12.397 13.7739 12.4358C13.869 12.4746 13.9683 12.5307 14.0763 12.604L15.5059 13.6174C15.6181 13.6951 15.6959 13.7856 15.7434 13.8934C15.7866 14.0012 15.8125 14.1091 15.8125 14.2298Z" fill="#25d366"></path></svg>